<?xml version="1.0"?>
<svg xmlns="http://www.w3.org/2000/svg" xmlns:xlink="http://www.w3.org/1999/xlink" xmlns:svgjs="http://svgjs.com/svgjs" version="1.1" width="512" height="512" x="0" y="0" viewBox="0 0 512 512" style="enable-background:new 0 0 512 512" xml:space="preserve" class=""><g><g xmlns="http://www.w3.org/2000/svg"><circle cx="166" cy="136" r="15" fill="#000" data-original="#000000" style="" class=""/><circle cx="256" cy="136" r="15" fill="#000" data-original="#000000" style="" class=""/><circle cx="346" cy="136" r="15" fill="#000" data-original="#000000" style="" class=""/><circle cx="301" cy="76" r="15" fill="#000" data-original="#000000" style="" class=""/><circle cx="211" cy="76" r="15" fill="#000" data-original="#000000" style="" class=""/><path d="m31 406c0 58.448 47.103 106 105 106h240c57.897 0 105-47.552 105-106 0-13.745-6.201-26.063-15.944-34.323 9.888-10.701 15.944-24.992 15.944-40.677s-6.056-29.976-15.944-40.677c9.743-8.26 15.944-20.578 15.944-34.323 0-11.517-4.354-22.032-11.495-30 7.141-7.968 11.495-18.483 11.495-30 0-108.075-87.477-196-195-196h-60c-107.523 0-195 87.925-195 196 0 11.517 4.353 22.032 11.495 30-7.142 7.968-11.495 18.483-11.495 30 0 13.745 6.201 26.063 15.944 34.323-9.888 10.701-15.944 24.992-15.944 40.677s6.056 29.976 15.944 40.677c-9.743 8.261-15.944 20.578-15.944 34.323zm345 76h-240c-41.355 0-75-34.094-75-76 0-8.271 6.729-15 15-15h60c8.271 0 15 6.729 15 15 0 24.813 20.187 45 45 45s45-20.187 45-45c0-8.271 6.729-15 15-15s15 6.729 15 15c0 24.813 20.187 45 45 45s45-20.187 45-45c0-8.271 6.729-15 15-15h60c8.271 0 15 6.729 15 15 0 41.906-33.645 76-75 76zm-300-211c-8.271 0-15-6.729-15-15s6.729-15 15-15h360c8.271 0 15 6.729 15 15s-6.729 15-15 15c-19.111 0-40.546 0-60 0-24.813 0-45 20.187-45 45 0 8.271-6.729 15-15 15s-15-6.729-15-15c0-24.813-20.187-45-45-45s-45 20.187-45 45c0 8.271-6.729 15-15 15s-15-6.729-15-15c0-24.813-20.187-45-45-45-19.482 0-40.912 0-60 0zm15 30h45c8.271 0 15 6.729 15 15 0 24.813 20.187 45 45 45s45-20.187 45-45c0-8.271 6.729-15 15-15s15 6.729 15 15c0 24.813 20.187 45 45 45s45-20.187 45-45c0-8.271 6.729-15 15-15h45c16.542 0 30 13.458 30 30s-13.458 30-30 30h-45c-24.813 0-45 20.187-45 45 0 8.271-6.729 15-15 15s-15-6.729-15-15c0-24.813-20.187-45-45-45s-45 20.187-45 45c0 8.271-6.729 15-15 15s-15-6.729-15-15c0-24.813-20.187-45-45-45h-45c-16.542 0-30-13.458-30-30s13.458-30 30-30zm135-271h60c90.981 0 165 74.467 165 166 0 8.271-6.729 15-15 15h-360c-8.271 0-15-6.729-15-15 0-91.533 74.019-166 165-166z" fill="#000" data-original="#000000" style="" class=""/></g></g></svg>
