<?xml version="1.0" encoding="UTF-8"?>
<svg xmlns="http://www.w3.org/2000/svg" xmlns:xlink="http://www.w3.org/1999/xlink" width="1785.18pt" height="2441.18pt" viewBox="0 0 1785.18 2441.18" version="1.1">
<defs>
<clipPath id="clip1">
  <path d="M 0 0 L 1785.179688 0 L 1785.179688 2441.179688 L 0 2441.179688 Z M 0 0 "/>
</clipPath>
</defs>
<g id="surface1">
<g clip-path="url(#clip1)" clip-rule="nonzero">
<path style=" stroke:none;fill-rule:nonzero;fill:rgb(1.199341%,1.599121%,1.599121%);fill-opacity:1;" d="M 1087.339844 247.839844 C 1087.339844 223.46875 1107.089844 203.71875 1131.460938 203.71875 L 1140.28125 203.71875 C 1164.648438 203.71875 1184.398438 223.46875 1184.398438 247.839844 C 1184.398438 272.199219 1164.648438 291.949219 1140.28125 291.949219 L 1131.460938 291.949219 C 1107.089844 291.949219 1087.339844 272.199219 1087.339844 247.839844 Z M 1243.21875 247.839844 C 1243.21875 223.46875 1262.980469 203.71875 1287.339844 203.71875 L 1296.171875 203.71875 C 1320.53125 203.71875 1340.28125 223.46875 1340.28125 247.839844 C 1340.28125 272.199219 1320.53125 291.949219 1296.171875 291.949219 L 1287.339844 291.949219 C 1262.980469 291.949219 1243.21875 272.199219 1243.21875 247.839844 Z M 1399.109375 247.839844 C 1399.109375 223.46875 1418.859375 203.71875 1443.21875 203.71875 L 1452.050781 203.71875 C 1476.410156 203.71875 1496.160156 223.46875 1496.160156 247.839844 C 1496.160156 272.199219 1476.410156 291.949219 1452.050781 291.949219 L 1443.21875 291.949219 C 1418.859375 291.949219 1399.109375 272.199219 1399.109375 247.839844 Z M 281.441406 420.160156 C 298.78125 437.28125 298.957031 465.21875 281.839844 482.550781 C 273.210938 491.300781 261.828125 495.671875 250.445313 495.671875 C 239.246094 495.671875 228.046875 491.441406 219.449219 482.949219 L 13.121094 279.230469 C 13.089844 279.199219 13.0625 279.171875 13.03125 279.140625 C 12.703125 278.808594 12.382813 278.46875 12.0625 278.128906 C 11.886719 277.949219 11.707031 277.769531 11.539063 277.578125 C 11.148438 277.148438 10.773438 276.71875 10.398438 276.269531 C 10.308594 276.171875 10.21875 276.070313 10.132813 275.96875 C 4.246094 268.859375 0.542969 259.878906 0.0546875 250.058594 C 0.0195313 249.320313 0 248.578125 0 247.839844 C 0 247.101563 0.0195313 246.351563 0.0546875 245.621094 C 0.542969 235.789063 4.246094 226.808594 10.132813 219.710938 C 10.21875 219.601563 10.308594 219.5 10.398438 219.398438 C 10.773438 218.960938 11.148438 218.519531 11.539063 218.089844 C 11.707031 217.910156 11.886719 217.730469 12.0625 217.539063 C 12.382813 217.199219 12.703125 216.859375 13.03125 216.539063 C 13.0625 216.5 13.089844 216.46875 13.121094 216.441406 L 219.449219 12.71875 C 236.785156 -4.398438 264.71875 -4.21875 281.839844 13.121094 C 298.957031 30.460938 298.78125 58.390625 281.441406 75.511719 L 151.59375 203.71875 L 507.929688 203.71875 C 532.292969 203.71875 552.046875 223.46875 552.046875 247.839844 C 552.046875 272.199219 532.292969 291.949219 507.929688 291.949219 L 151.59375 291.949219 Z M 1615.101563 2309.210938 C 1615.101563 2333.320313 1595.480469 2352.941406 1571.359375 2352.941406 L 726.5 2352.941406 C 702.386719 2352.941406 682.765625 2333.320313 682.765625 2309.210938 L 682.765625 2175.511719 C 682.765625 2151.398438 702.375 2131.78125 726.480469 2131.769531 C 726.488281 2131.769531 726.496094 2131.769531 726.5 2131.769531 C 726.515625 2131.769531 726.527344 2131.769531 726.539063 2131.769531 L 1571.320313 2131.769531 C 1571.339844 2131.769531 1571.351563 2131.769531 1571.359375 2131.769531 C 1571.371094 2131.769531 1571.378906 2131.769531 1571.378906 2131.769531 C 1595.488281 2131.78125 1615.101563 2151.398438 1615.101563 2175.511719 Z M 624.9375 1636.078125 C 557.777344 1488.988281 488.328125 1336.878906 479.890625 1213.058594 C 473.113281 1113.628906 492.105469 1042.871094 536.347656 1002.75 C 569.398438 972.78125 611.828125 964.820313 641.65625 963.429688 L 641.65625 1176.078125 C 641.65625 1191.511719 649.710938 1205.808594 662.902344 1213.808594 C 669.914063 1218.058594 677.835938 1220.199219 685.773438 1220.199219 C 692.769531 1220.199219 699.773438 1218.539063 706.179688 1215.199219 L 706.191406 1215.191406 C 721.648438 1207.128906 730.328125 1191.191406 729.890625 1174.859375 L 729.894531 182.78125 C 729.855469 157.039063 739.144531 133.011719 756.054688 115.121094 C 772.421875 97.808594 794.214844 88.261719 817.414063 88.238281 C 817.449219 88.238281 817.480469 88.238281 817.511719 88.238281 C 841.019531 88.238281 863.339844 97.871094 880.363281 115.371094 C 897.832031 133.320313 907.472656 157.199219 907.507813 182.550781 L 907.507813 781.359375 L 907.5 899.628906 C 907.496094 924 927.25 943.75 951.613281 943.75 C 951.613281 943.75 951.617188 943.75 951.617188 943.75 C 975.980469 943.75 995.734375 924 995.734375 899.640625 L 995.742188 781.371094 L 995.742188 781.300781 C 995.707031 755.558594 1005 731.53125 1021.898438 713.640625 C 1038.269531 696.328125 1060.058594 686.78125 1083.261719 686.761719 C 1083.289063 686.761719 1083.320313 686.761719 1083.359375 686.761719 C 1132.289063 686.761719 1172.140625 729.070313 1172.21875 781.058594 L 1172.210938 815.53125 C 1172.210938 815.539063 1172.210938 815.539063 1172.210938 815.539063 L 1172.21875 921.378906 C 1172.230469 945.75 1191.980469 965.5 1216.351563 965.5 C 1240.710938 965.488281 1260.460938 945.738281 1260.460938 921.371094 L 1260.449219 815.511719 L 1260.449219 815.46875 C 1260.410156 789.890625 1269.839844 765.929688 1286.988281 748 C 1303.671875 730.558594 1325.71875 720.949219 1349.089844 720.921875 C 1349.121094 720.921875 1349.160156 720.921875 1349.191406 720.921875 C 1398.121094 720.921875 1437.96875 763.238281 1438.050781 815.230469 L 1438.039063 855.890625 C 1438.039063 855.921875 1438.039063 855.949219 1438.039063 855.988281 L 1438.039063 944.199219 C 1438.039063 968.570313 1457.789063 988.320313 1482.148438 988.320313 C 1482.148438 988.320313 1482.148438 988.320313 1482.160156 988.320313 C 1506.519531 988.320313 1526.269531 968.570313 1526.269531 944.199219 L 1526.28125 856.070313 C 1526.28125 856.039063 1526.28125 856.019531 1526.28125 855.988281 L 1526.28125 855.828125 C 1526.269531 833.679688 1534.429688 812.941406 1549.269531 797.421875 C 1563.660156 782.390625 1582.660156 774.101563 1602.769531 774.070313 C 1602.800781 774.070313 1602.820313 774.070313 1602.851563 774.070313 C 1649.859375 774.070313 1673.820313 821.640625 1680.050781 862.378906 L 1681.621094 872.601563 C 1692.558594 943.699219 1701.210938 999.859375 1694.789063 1174.460938 C 1685.558594 1425.628906 1643.519531 1548.578125 1602.878906 1667.480469 C 1566.960938 1772.550781 1532.878906 1872.238281 1527.878906 2043.539063 L 768.183594 2043.539063 C 762.808594 1993.128906 748.40625 1936.390625 723.964844 1868.679688 C 696.867188 1793.609375 660.300781 1713.53125 624.9375 1636.078125 Z M 1782.960938 1177.699219 C 1789.691406 994.730469 1780.019531 931.910156 1768.828125 859.171875 L 1767.269531 849.050781 C 1760.550781 805.101563 1743.191406 766.539063 1717.050781 737.511719 C 1686.601563 703.699219 1647.121094 685.839844 1602.859375 685.839844 C 1602.800781 685.839844 1602.738281 685.839844 1602.671875 685.839844 C 1565.398438 685.878906 1530.078125 698.558594 1501.269531 721.910156 C 1470.308594 668.519531 1413.71875 632.691406 1349.191406 632.691406 C 1349.121094 632.691406 1349.058594 632.691406 1348.988281 632.691406 C 1304.738281 632.738281 1263.070313 649.390625 1230.550781 679.78125 C 1198.738281 630.820313 1144.628906 598.519531 1083.359375 598.519531 C 1083.289063 598.519531 1083.230469 598.519531 1083.160156 598.519531 C 1051.898438 598.558594 1021.988281 606.890625 995.742188 622.53125 L 995.742188 182.480469 C 995.59375 81.820313 915.664063 0 817.515625 0 C 817.449219 0 817.378906 0 817.3125 0 C 769.644531 0.0507813 725.117188 19.410156 691.9375 54.511719 C 659.441406 88.878906 641.585938 134.480469 641.65625 182.851563 L 641.65625 875.128906 C 597.050781 876.648438 531.675781 888.378906 477.929688 936.621094 C 412.070313 995.71875 383.113281 1090.75 391.855469 1219.058594 C 401.390625 1358.910156 474.230469 1518.449219 544.675781 1672.730469 C 580.890625 1752.050781 615.101563 1826.96875 640.972656 1898.640625 C 662.539063 1958.390625 675.519531 2008.921875 680.289063 2051.898438 C 630.246094 2070.660156 594.53125 2118.988281 594.53125 2175.511719 L 594.53125 2309.210938 C 594.53125 2381.980469 653.730469 2441.179688 726.5 2441.179688 L 1571.359375 2441.179688 C 1644.128906 2441.179688 1703.328125 2381.980469 1703.328125 2309.210938 L 1703.328125 2175.511719 C 1703.328125 2118.378906 1666.828125 2069.609375 1615.929688 2051.289063 C 1619.96875 1890.269531 1650.921875 1799.730469 1686.371094 1696.019531 C 1727.089844 1576.890625 1773.25 1441.859375 1782.960938 1177.699219 "/>
</g>
</g>
</svg>
